<?xml version="1.0" encoding="UTF-8"?>
<svg id="_레이어_1" data-name="레이어_1" xmlns="http://www.w3.org/2000/svg" width="200" height="200" version="1.1" viewBox="0 0 200 200">
  <!-- Generator: Adobe Illustrator 29.7.1, SVG Export Plug-In . SVG Version: 2.1.1 Build 8)  -->
  <path d="M53.4266461,90.8305862c-.1416692,2.785354-1.8950206,5.4026504-3.4405588,7.6299199-.3185171.4590138-.6468949.9280671-1.1052491,1.2475307-.3948459.2751996-.8623962.4224772-1.3218327.5658518-7.1190044,2.2216104-16.6304261,2.6130264-21.3704854-4.4522888-1.034682-1.5422633-2.4113531-4.0813843-2.1152896-5.9951147.3872781-2.5033337,2.5775533-5.1458575,4.2426854-6.942877.4822128-.5204068.9978515-1.024606,1.6194319-1.3666445.7480259-.4116165,1.6062567-.5657763,2.4470968-.7139612,2.6046162-.459024,5.3338055-1.3121208,7.9453862-.903947,2.3920351.3738602,4.6164575.7191406,6.8026459,1.8468739,2.8786273,1.4849266,5.4392714,4.0433206,6.1513347,7.2912879.1324041.603941.1748907,1.2024372.1448346,1.7933691Z" style="fill: #efbab4;"/>
  <path d="M179.9471139,125.006889c-.1143309,1.5836899-.6895535,3.1628228-1.425342,4.7467372-.5122968,1.1028092-1.0397484,2.2280475-1.8853557,3.1018794-1.342138,1.3869367-3.3190023,1.9654126-5.2361257,2.1880465-5.5534298.6449152-11.278444.743301-15.6978097-3.26797-1.2272661-1.1139404-2.2333773-2.4934063-2.777813-4.0681182-.7088051-2.0501298-.5943029-3.5658276-.1823173-5.6712719.1678233-.8576553.3432512-1.7354716.7962345-2.4828293.4910852-.8102205,1.26833-1.4008257,2.0478213-1.9393565,4.945297-3.4165794,10.6696917-4.1360334,16.3677246-2.1913306,2.8253043.9642609,5.5472786,2.8078741,7.050938,5.4410441.7929388,1.3885742,1.0413518,2.7675908.942045,4.1431694Z" style="fill: #efbab4;"/>
  <g>
    <g>
      <path d="M74.3156896,63.4031046c-1.2459558-5.9783591-4.0665935-10.2086192-8.8783925-13.314803-3.6445425-2.3512279-7.8462481-3.5937014-12.1517252-3.5937014-1.3720139,0-2.7482065.1309333-4.111863.3927999l-.6685956.1420766c-6.9617518,1.5725926-12.8802158,6.5578086-16.2392123,13.6797448-1.5064295,3.2036873-2.5545924,5.7499222-2.326852,9.3603385.0933248,1.4291231.3426553,2.9237129.7835105,4.7010629.745902,3.0226093,2.5866293,5.5897379,4.2880658,7.7027786.7201332.8928537,1.5489132,1.5837359,2.296208,2.2077584.3907106.3273333.7855998.6574523,1.160292,1.0168225,1.785011,1.7202408,3.8576574,3.0295739,6.5229859,4.1202204,1.4792678.6045219,3.0142519,1.0015005,4.8326926,1.2480451,1.1707388.1573985,2.3756038.2367943,3.5818617.2367943,1.785011,0,3.6306135-.1713276,5.4859663-.5084112,3.1298632-.5710921,5.7722088-1.6283089,7.8546055-3.1410065,1.4144976-1.0293587,2.6221484-2.4027655,3.8005482-4.322192,1.0801998-1.7522777,2.041306-3.3457639,2.8617285-5.0994344,1.1630778-2.4821612,1.7641174-4.7512076,1.837245-6.9380724.0877532-2.7495994-.3893177-5.301406-.9290693-7.8908211ZM68.5255088,71.2730261c-.071026,1.357242-.7038029,2.6382924-1.4360162,4.1220898-.3493187.7063857-.6986374,1.4192283-.9975922,2.1540244q-.9543309,2.3399833-1.9280326,3.1935865c-.5559397.4868508-1.3172091,1.1544951-2.5046344,2.3554799-1.2448918,1.2578056-4.9253291,1.421811-6.691939,1.5005853-.5830588.0245362-1.0666811.0477811-1.3895265.0865226-.2724815.0309932-.6185717.043907-1.0066319.043907-1.2293952,0-2.9495154-.1510916-3.8580023-.4403611-1.8608808-.5901614-3.6546097-1.7717754-4.5566397-2.4226317-5.0518845-3.6584838-7.5365025-10.2639002-6.1818433-16.4379953,1.3359342-6.1004863,5.1694002-10.0249947,11.3945048-11.6663406,1.4715292-.3887058,2.9223964-.5862872,4.3125686-.5862872,3.6178053,0,7.0141387,1.3507851,10.0934379,4.0161965,2.4620189,2.1333623,3.2381391,3.5939147,4.1563114,7.8309375l.2518194,1.0873432c.3447989,1.4618439.5023474,2.1294881.3422161,5.1629433Z" style="fill: #262727;"/>
      <path d="M54.930787,75.2554888c.6429907-.0694664,1.24799-.230835,1.8410263-.6242383.7598418-.5040574,1.4144908-1.1635452,1.8943964-1.9401254.9987196-1.6161217,1.140039-3.5976448.5987815-5.3967655-.5949904-1.9777249-2.0034793-3.6772706-3.9201328-4.4888436-.9258575-.392038-1.9386527-.5635768-2.9419861-.499343-1.2095709.0774372-2.0043841.565891-3.0209047,1.1727954-.4084316.2438504-.8072452.5045971-1.1812392.7990724-.7483561.5892406-1.4039195,1.3263457-1.7603781,2.2096547-.4832296,1.1974745-.483814,2.6200501-.2493838,3.8734228.0937944.5014681.1231157,1.0446953.3786041,1.4898709.4015424.6996674.8855432,1.363989,1.3249087,2.0407547.2252874.3470162.4568803.7009872.7843188.9538877.6517739.503404,1.5452361.5141658,2.368702.5028214.8924255-.0122943,1.784851-.0245887,2.6772765-.0368831.419489-.0057792.8196095-.0143357,1.2060102-.056081Z" style="fill: #262727;"/>
    </g>
    <path d="M41.2118556,40.1176064c.1026407.2097842.2331243.4043814.408742.5564052.24558.212587.5603127.3259143.8718873.4176962,1.5337323.451798,3.154921.4855546,4.7535235.5159813,3.9223751.0746558,7.8454603.149315,11.7683061.1059529,1.4464768-.015989,3.3870644.1494048,4.4469114-1.0567641.9488172-1.0799074,1.0889949-2.8033842.6303918-4.1260052-.5191842-1.4973381-2.0972911-1.822592-3.5318067-1.9586939-2.0766915-.1970293-4.1651399-.2278833-6.250931-.2585971-2.395539-.035275-4.791078-.0705499-7.186617-.1058248-1.6663522-.0245374-4.0340076-.3695226-5.2052952,1.039378-1.0323579,1.2417869-1.395167,3.0375302-.8343906,4.564161.0380455.1035735.0805204.2066556.1292784.3063106Z" style="fill: #262727;"/>
  </g>
  <g>
    <g>
      <path d="M168.4052299,137.8030288c-.0649211-.3223118-.1493899-.6410294-.2523387-.9646346-.9370442-2.8937422-1.9978742-6.1749568-4.2187236-8.6376365-3.45594-3.8395355-9.4392822-7.992997-15.0129945-8.6183977-.9056412-.1016487-1.8422914-.1345452-2.7831573-.0969474-3.478395.1389999-7.2547023,1.235086-10.9188125,3.1677874-5.4948171,2.8975918-8.5850407,8.0339167-10.2082502,11.8330918-1.1822827,2.7604219-1.8036196,6.3943809-1.5823052,9.2576505.1975649,2.5857277,1.0827823,4.992072,1.8701602,7.1322743.8314675,2.2579946,2.0341283,4.1256151,3.4008582,6.1568682.7613537,1.1369871,1.7571696,2.1577093,3.229423,3.3098902.3078077.2408733.5763518.4847221.8739354.7513213.7456439.6734633,1.5161144,1.3698453,2.7521946,1.8563345,3.4471053,1.3658202,7.5486011,2.7758162,11.8431509,2.8925386.3181523.0069776.6359118.0041253.9518742-.0085009,3.9066996-.1561154,8.0078138-1.9234323,11.5442909-4.9734362,3.6836497-3.1684067,7.2339096-6.7534389,8.2710112-11.4926587.5065282-2.3184947.6796309-4.7797892.5474635-7.7352319l-.0268194-.7767337c-.0274312-.932833-.0583964-1.9892985-.2809606-3.0535793ZM162.164928,139.8272517l-.4437224,7.4726149c-.8847666,2.7813389-2.6770483,5.0458047-4.7608658,7.5111175l-.1617227.1943456c-.3569671.2074032-.7227497.4243558-1.1398499.6722642-.9521577.5688515-1.9350117,1.1586377-2.9283548,1.6174563-1.366155.6313806-3.5096707,1.405504-5.9548149,1.5032142-1.9873355.0794158-3.7782017-.3167563-5.3194987-1.1748718-.5725491-.3213537-1.1880721-.6331068-1.9295752-1.0068329-1.6547921-.8378137-3.3645726-1.703649-4.2322449-2.6701429-1.5401615-1.7174301-4.237176-5.3909651-4.5259845-6.5027807-1.4953526-5.7252023-.430731-10.8116823,3.2559487-15.5470303,4.395726-3.595654,7.9356826-5.262514,11.464351-5.4035229,3.4486502-.1378113,7.0599563,1.1644455,11.7044493,4.2214719,2.303998,2.5842779,4.0194089,5.7281342,4.9718847,9.1126968Z" style="fill: #262727;"/>
      <path d="M144.4451065,136.414705c-.1217314.0472546-.2398298.0998214-.353744.1582228-1.4853008.7614827-2.8592611,1.657218-3.653805,3.1793586-1.0443847,2.0010569-1.1260315,5.2851924.2942518,7.1033592.5491185.7029508,1.2813234,1.2522961,2.0837775,1.6418322,2.3143825,1.1234737,6.0786314.9746902,8.1268067-.6696957,1.5932395-1.2791745,2.5342667-3.3007151,2.4826408-5.3439406-.0588867-2.3305887-1.0837612-3.5861963-2.5475568-5.3158261-.1268141-.1498449-.6543903-.4206639-.8318757-.5045343-.1748235-.0826119-.8509897-.3013143-1.0442755-.3066565-1.5886107-.043908-3.0119069-.541602-4.5562197.0578804Z" style="fill: #262727;"/>
    </g>
    <path d="M154.7662155,107.3474149c-1.082223-.620779-2.4730398-.6236221-3.8009132-.6532736-3.8130808-.0851448-7.6262326-.1675954-11.4392521-.2554355-2.3833984-.0549061-5.7251606-.137767-6.4552041,2.7550781-.3433283,1.3641073.2452864,2.9129792,1.4079197,3.704779,1.0913629.7432618,2.4933631.8021585,3.8133537.8358618,4.4067125.1125165,8.813425.225033,13.2201375.3375495,1.6191655.0413421,3.4976958-.0350197,4.4750831-1.3266501.9072225-1.1989646.6928732-3.0084327-.0442982-4.2342133-.3187885-.5300866-.7203571-.9018583-1.1768264-1.1636958Z" style="fill: #262727;"/>
  </g>
  <g>
    <path d="M143.4111639,49.7210274c-.5956847-2.0279208-1.7019562-3.8218507-3.196658-5.1896861-3.0360702-2.7790025-7.1550787-3.547417-10.0744826-3.7034109-1.7911716-.0953296-3.6248921-.14155-5.60822-.14155-2.1705941,0-4.3593538-.1747841-6.5269469.0243049-2.3850967.2190663-4.7508488.7250649-7.1559072.6681924-1.7482356-.0413407-3.4769206-.3831366-5.2235352-.4690091-1.6433408-.080795-3.288674.0655118-4.9260451.2271062-2.7240613.2688419-5.3218596.1820476-8.0366953.1820476-4.5033212,0-8.8227213,2.9248857-10.503403,7.113611-1.4233295,3.547417-1.1838203,8.1391265.6416649,12.2859644.3911754.8911874,1.1515655,1.8098182,1.7884265,2.5782326,1.0097556,1.2228665,2.358236,2.0084626,3.6067977,2.1000215,7.7461179.5680342,15.6121728.230744,23.3903708.5544821,1.284963.0534817,2.603396.1135924,3.8656566-.1831645,1.1426547-.2686376,2.3333071-1.1415734,3.5306093-1.1149047,1.3016288.0289925,2.8064774.7508721,4.1183064.9685353,3.3058001.5485132,6.5551566.3135674,9.8668277.1067347,2.8595066-.1785925,5.8406976-.7725848,7.8971619-2.9314627.712351-.7467486,1.9764652-2.1651376,2.4431307-3.2715389.3362736-.7944134.3294109-1.6668238.3239207-2.4352382-.0041176-.7207496.0370587-1.45161.0782351-2.1824703.0974507-1.7188217.1976465-3.495419-.2992149-5.1867974ZM88.1674433,51.7809136c.1330123-.5953269.3331764-1.4967112.6934719-1.9590258.2841039-.3641696.8096962-.670227,1.3185005-.9659534.2156607-.125264.4248645-.2479453.6095321-.3693351.5036388-.3357592,1.0240655-.6831408,1.5961475-.8548946.348673-.1058933.7257564-.1485089,1.0912174-.1898331,1.4786318-.169171,2.958555-.2389056,4.3906971-.3060574.9995293-.0477811,2.0029327-.0955622,3.01925-.1743365,1.3249574.1446347,2.7480599.2143693,4.3493729.2143693,2.7183581,0,5.530987-.206621,8.2506365-.4067852,2.2224676-.1640055,4.3209625-.3176799,6.3742591-.3693351.8690998-.0206621,1.7524047-.0361587,2.6408752-.0361587,3.0618656,0,5.4974111.1769193,7.6979252.5604596,2.5233595.4416525,4.5172525.7903255,6.1960485,2.680908,1.9138274,2.1540244,1.5444923,5.1771485.8975102,7.3337556-.3409247,1.1325416-1.5470751,2.6124648-2.735146,2.9275619-1.6568425.4390697-2.6447493.4506921-4.2822211.4687715,0,0-1.2926729.0142052-1.705915.0142052-1.9241585,0-3.8508997-.054238-5.7763495-.108476-1.9060791-.0529466-3.8108668-.1058933-5.7091977-.1071847-1.3804868-.0012914-2.7583909-.1071847-4.0910966-.2104952-1.3314143-.1033105-2.7093184-.2092038-4.0833483-.2092038-1.3688644,0-2.5969682.1071847-3.7527547.3267195-1.3172091.250528-2.8113375.3719179-4.5714905.3719179-1.9848534,0-3.983912-.152383-5.9158187-.2996005l-.5901614-.043907c-2.7764702-.2092038-4.8116875-.9285033-5.7234029-3.7669599-.4623146-1.4398904-.5294664-2.9934223-.1885417-4.5211267Z" style="fill: #262727;"/>
    <path d="M141.0794471,52.0554622c-.0003948-.0007895-.0011843-.0011843-.0019739-.0015791-.1393539-.0967187-.2830503-.1879106-.4287205-.2747601-.5585999-.3335808-1.1456232-.6154468-1.7204087-.9194199-.2917352-.1543552-.5980769-.3237116-.8823115-.5203072-.1006664.3801637-.257785.7473001-.4405636,1.0962769-.4591178.8771795-1.0196915.5378636-1.9616133.5161512-.2222556-.005132-.4460904-.0185542-.6655826.0157908-.4437217.0690848-.8321757.3241064-1.2352361.5226758-1.8305496.9032343-4.3393144.8207273-6.1896025.0090797-1.5814496-.6940061-2.0962299-1.6483523-2.8391875-3.0659722-.8925755-1.702644-.7302381-3.736895-.7764262-5.6669267-.0694796-2.8924815-5.0363348-2.0381987-4.9577755,1.2423419.0757959,3.1727684,1.0984148,5.8923405,2.6242018,8.5669089,1.3888017,2.434548,4.9575246,3.3065955,7.5780094,3.766108.8973127.1571186,1.8068634.2522582,2.7179931.2569954,1.0165334.0055268,1.8664737-.214755,2.8253706-.4449061,1.1456232-.2747601,2.3078268-.5084641,3.4822682-.6896636.1417225-.0217124.2866032-.044609.4125349-.1129043.1247474-.0675057.2226504-.1748832.3181848-.2802869.8317809-.9194199,1.7097499-1.795415,2.3792802-2.8368189.0832965-.1294846.1326428-.2723915.194227-.4101663-.2025171-.2258086-.3698997-.4812249-.4326682-.7686176Z" style="fill: #262727;"/>
    <path d="M124.5642343,52.9330364c-.331607-.3043679-.5282026-.8329652-.5282026-1.2755026-.0090797-.2479157.0426352-.4796458.1555395-.6947956.0726377-.22344.1969903-.4168774.3726631-.5803122.0864547-.1085618.1914636-.1973851.2925247-.2905509-.3402919.06869-.67861.1480388-1.0165334.2277824-.6213684.1468545-1.1997067-.0375032-1.633954-.4156931-.0378979.1294846-.0746116.2641013-.1164572.3631886-.1954113.4614864-.3529246,1.0019269-.6284742,1.4235415-.7161132,1.0958822-2.0989933,1.3603782-3.3089641,1.4349898-.8724422.0540835-1.7448844.1077723-2.6173267.161461-.6482127.0402666-1.3098476.078954-1.936348-.0915867-2.3702005-.644265-2.9678826-2.9509075-3.4262109-5.0214774-.1894897-.8550723-.5968926-2.2829563.0355293-2.9955165.7086126-.7982254-.6024194-1.2455001-1.1847055-1.259317-1.0710116-.0248705-2.1972911.3896382-2.9110357,1.1937852-.9277101,1.044562-.6643983,2.6512769-.4137192,3.9224371.2660751,1.3485351.6379487,2.8135275,1.3094529,4.0219192,1.3666946,2.4590238,3.4147625,3.9800735,6.242107,4.2098298,2.3978344.1950165,4.8987038-.0971135,7.2491658-.5333346.7480896-.1385644,1.5202602-.286998,2.1491292-.7149289.501753-.3414763.8756004-.8361234,1.2312884-1.3280071.36082-.4989896.7461157-.9731086,1.1290429-1.4460434-.1598819-.087639-.3118685-.1902793-.4445113-.3118685Z" style="fill: #262727;"/>
    <path d="M108.6585468,52.8631621c-.512017-.0007895-.9541597-.214755-1.2743183-.5507045-.4425374.1883054-.8992866.3450292-1.3651155.4516171-1.6276377.3722683-3.3243601.2929195-4.9831847.1034298-.5625476-.0643475-1.1416755-.1472493-1.6276377-.4385897-.9608708-.5771541-1.3426136-1.8937128-1.7440949-2.867611-.4997791-1.2111551-.3947702-2.7732609.048162-3.9911271.3691102-1.0149543-1.4634133-1.175231-2.0295138-1.0974613-1.0192967.1405382-2.2379525.5870233-2.6189057,1.6335592-.4895151,1.3461665-.5021477,2.8510306-.219887,4.24378.2242295,1.1069357.7326936,2.5667961,1.4385427,3.4364749,1.1491762,1.4164356,1.9434539,2.618511,3.804006,3.1972441,1.3655102.424378,2.8293183.3489769,4.2572022.2696281,1.1041723-.0611894,2.2083447-.1227735,3.312517-.1843577.7390099-.0410561,1.4795988-.0821122,2.2103185-.200938,1.2447106-.2025171,2.4527075-.6312376,3.546221-1.259317.2487052-.1425121.5057007-.3118685.6174206-.5759698.2569954-.6067619-.0055268-1.2530007.2609431-1.8680528.0126326-.0288182.0315816-.0568469.0453986-.0856651-1.2210243-.1417225-2.4495493-.2143602-3.6780743-.2159393Z" style="fill: #262727;"/>
    <path d="M96.7748674,52.1026151c-.1689617-.2114321-.3560828-.3855527-.5542574-.528102-.4374054-.3152348-.9308682-.4778749-1.4120931-.5501063-2.1096521-.3171482-4.3483941.9074362-5.8702334,2.7313972-.8148058.9777541-1.8609469,2.4257295-2.1001777,3.9832477-.0959292.624251-.1061932,1.2800734-.1902793,1.9095863-.0268444.198995-.058426.3965549-.0880338.5945931.0469777.3027976.0947449.6060736.1740937.8993042.0280287.1038027.0611894.2047352.0935605.3066245-.0907972-.3018409.0750063.2047352.1389591.3525464.1523813.3511113.3320018.6759132.5139908,1.0040635.0331607.048792.0655319.0971057.0994821.1444627.1022455.1444627.2084387.2846202.3181848.4204725.063558.0789283.1314585.1521163.1973851.2276962.0781645.0100454.1180363.0559673.1184311.1363307.0201333.0224826.0386875.0468786.0592155.0684045.058426.0631426.1184311.1248502.1784361.1851227.0552678.055489.0710586.0746231.0797436.0870603.6162363-.6452986.8925755-1.5938731,1.4199885-2.407552.7504582-1.1580933,1.5013112-2.3171433,2.2521642-3.4761933,1.0062693-1.5522564,2.4645506-2.3630652,3.9942852-2.5467529,1.4116984-.1688587,1.7346204-2.0980575.5771541-3.542206Z" style="fill: #262727;"/>
    <path d="M130.1182567,59.7696673c-.1148781-.8152005-.3422658-1.6177684-.6501866-2.3958606-.4022709-1.0173229-.7923039-2.2462426-2.0003008-2.7578649-.6561081-.2779182-1.3524828-.4851726-2.0563582-.6766362-.2352831.379769-.5870233.677031-1.015349.7397994-.5582051.0817174-1.116805.1401434-1.6761944.2064648.3774003-.044609-.3079208.0572417-.3754265.0714534-.2080439.0426352-.4145087.0915867-.6189997.1492231-.347003.0971135-.6849264.2202818-1.0216654.3466083.6328167.1843577,1.2533955.3959545,1.8416031.6679512.3513455.1622506.6963747.3493717.9474486.6122886.2625222.2743653.4070081.6134729.5471515.9454747.3841114.9111297.5759698,1.7709393.6884793,2.7349682.0371084.3189743.0410561.7390099.1618558,1.0414039.1140886.2873927.419246.3825324.766249.503332,1.1554925.4018761,2.2288727-.0955344,3.3859443-.1342219,1.3548514-.0453986,1.1953643-1.2060231,1.0757489-2.0543843Z" style="fill: #262727;"/>
  </g>
</svg>